<svg version="1.1" id="Layer_1" xmlns="http://www.w3.org/2000/svg" xmlns:xlink="http://www.w3.org/1999/xlink" x="0px" y="0px"
	 width="100%" viewBox="0 0 534 534" enable-background="new 0 0 534 534" xml:space="preserve">
<path fill="#F7F7F7" opacity="1.000000" stroke="none" 
	d="
M297.000000,535.000000 
	C198.023041,535.000000 99.546074,535.000000 1.034557,535.000000 
	C1.034557,357.064667 1.034557,179.129349 1.034557,1.097005 
	C178.893646,1.097005 356.787384,1.097005 534.840576,1.097005 
	C534.840576,178.999893 534.840576,356.999939 534.840576,535.000000 
	C455.795929,535.000000 376.647980,535.000000 297.000000,535.000000 
M256.049988,409.545166 
	C268.372894,400.160950 280.815552,390.927643 292.944794,381.299438 
	C296.524933,378.457520 298.479004,378.905304 301.513092,381.992615 
	C311.670685,392.328522 322.213806,402.284424 332.472748,412.522675 
	C334.830902,414.876068 336.604736,415.283417 339.717804,413.554321 
	C374.058563,394.480042 408.489197,375.567169 442.943909,356.698975 
	C445.608307,355.239899 446.659454,353.531982 446.648132,350.444000 
	C446.538757,320.611389 446.531189,290.777985 446.656128,260.945496 
	C446.670044,257.617310 445.653503,256.001434 442.541748,254.644989 
	C421.797241,245.602341 401.196136,236.230515 380.445221,227.202881 
	C377.206482,225.793884 373.457184,225.027649 369.916962,224.928467 
	C346.774811,224.280151 323.625824,223.864319 300.477692,223.447678 
	C293.383972,223.319977 286.285980,223.427872 279.132446,223.427872 
	C279.132446,238.775513 279.132446,253.688141 279.132446,269.008789 
	C281.398560,269.008789 283.364716,269.008972 285.330841,269.008789 
	C308.497253,269.006744 331.693451,269.713348 354.819122,268.741821 
	C369.113708,268.141266 381.727997,270.779877 393.082001,279.387238 
	C393.214111,279.487396 393.355774,279.587280 393.508850,279.645599 
	C396.247437,280.688721 396.926422,282.690155 396.889893,285.531555 
	C396.744202,296.862823 396.747864,308.198273 396.894409,319.529602 
	C396.931061,322.362030 396.106781,324.052399 393.558411,325.475739 
	C377.574677,334.403503 361.625885,343.398010 345.808228,352.615295 
	C342.646088,354.457947 340.531708,353.996185 337.805695,352.002808 
	C326.917114,344.040588 315.828796,336.351135 304.958771,328.364288 
	C302.540009,326.587097 300.809937,326.679260 298.333466,328.127106 
	C280.226196,338.712952 262.009125,349.110870 243.901886,359.696777 
	C241.201691,361.275391 239.150070,361.590393 236.242340,359.884247 
	C221.017838,350.951080 205.712265,342.147888 190.256760,333.622437 
	C186.467911,331.532471 185.431335,329.092255 185.440811,324.945190 
	C185.577179,265.279480 185.538254,205.613342 185.525421,145.947311 
	C185.525009,144.019150 185.354370,142.091034 185.266815,140.241684 
	C168.159042,140.241684 151.611053,140.241684 135.045776,140.241684 
	C134.948349,141.335541 134.838242,141.994812 134.838196,142.654083 
	C134.832138,212.153336 134.866669,281.652649 134.739838,351.151642 
	C134.733551,354.597870 136.506287,355.680450 138.941223,356.985748 
	C172.678101,375.071136 206.502136,393.000305 240.002579,411.514648 
	C246.295090,414.992249 250.787231,415.356354 256.049988,409.545166 
M404.068115,191.350525 
	C418.032562,195.785324 431.997040,200.220123 446.204987,204.732239 
	C446.204987,176.356140 446.204987,148.785141 446.204987,121.216934 
	C445.408691,121.121399 444.915588,121.010475 444.422485,121.010399 
	C382.116119,121.000862 319.809692,120.981697 257.503510,121.090782 
	C255.782227,121.093796 253.705795,122.086479 252.398590,123.279236 
	C239.002106,135.502655 225.673859,147.803101 212.504303,160.269806 
	C211.047806,161.648590 209.961273,164.190155 209.946152,166.201767 
	C209.769501,189.690216 209.762466,213.181030 209.967072,236.669006 
	C209.982635,238.454819 211.510712,241.008911 213.073471,241.875458 
	C224.978897,248.477097 237.063614,254.755844 249.108185,261.105377 
	C250.046356,261.599945 251.103745,261.868408 252.409332,262.355164 
	C253.277252,240.775497 255.020096,219.665024 254.617325,198.595566 
	C254.397888,187.116318 258.190674,179.152115 266.898163,172.861221 
	C268.995819,171.345734 271.805359,169.978302 274.294128,169.966721 
	C313.109863,169.786346 351.926636,169.837250 390.743195,169.850113 
	C392.353027,169.850647 393.962799,170.000854 396.167542,170.111069 
	C396.167542,174.223038 396.589447,178.077911 396.070709,181.801727 
	C395.249786,187.694824 397.750549,190.453720 404.068115,191.350525 
z"/>
<path fill="#EA1E26" opacity="1.000000" stroke="none" 
	d="
M255.765854,409.764374 
	C250.787231,415.356354 246.295090,414.992249 240.002579,411.514648 
	C206.502136,393.000305 172.678101,375.071136 138.941223,356.985748 
	C136.506287,355.680450 134.733551,354.597870 134.739838,351.151642 
	C134.866669,281.652649 134.832138,212.153336 134.838196,142.654083 
	C134.838242,141.994812 134.948349,141.335541 135.045776,140.241684 
	C151.611053,140.241684 168.159042,140.241684 185.266815,140.241684 
	C185.354370,142.091034 185.525009,144.019150 185.525421,145.947311 
	C185.538254,205.613342 185.577179,265.279480 185.440811,324.945190 
	C185.431335,329.092255 186.467911,331.532471 190.256760,333.622437 
	C205.712265,342.147888 221.017838,350.951080 236.242340,359.884247 
	C239.150070,361.590393 241.201691,361.275391 243.901886,359.696777 
	C262.009125,349.110870 280.226196,338.712952 298.333466,328.127106 
	C300.809937,326.679260 302.540009,326.587097 304.958771,328.364288 
	C315.828796,336.351135 326.917114,344.040588 337.805695,352.002808 
	C340.531708,353.996185 342.646088,354.457947 345.808228,352.615295 
	C361.625885,343.398010 377.574677,334.403503 393.558411,325.475739 
	C396.106781,324.052399 396.931061,322.362030 396.894409,319.529602 
	C396.747864,308.198273 396.744202,296.862823 396.889893,285.531555 
	C396.926422,282.690155 396.247437,280.688721 393.508850,279.645599 
	C393.355774,279.587280 393.214111,279.487396 393.082001,279.387238 
	C381.727997,270.779877 369.113708,268.141266 354.819122,268.741821 
	C331.693451,269.713348 308.497253,269.006744 285.330841,269.008789 
	C283.364716,269.008972 281.398560,269.008789 279.132446,269.008789 
	C279.132446,253.688141 279.132446,238.775513 279.132446,223.427872 
	C286.285980,223.427872 293.383972,223.319977 300.477692,223.447678 
	C323.625824,223.864319 346.774811,224.280151 369.916962,224.928467 
	C373.457184,225.027649 377.206482,225.793884 380.445221,227.202881 
	C401.196136,236.230515 421.797241,245.602341 442.541748,254.644989 
	C445.653503,256.001434 446.670044,257.617310 446.656128,260.945496 
	C446.531189,290.777985 446.538757,320.611389 446.648132,350.444000 
	C446.659454,353.531982 445.608307,355.239899 442.943909,356.698975 
	C408.489197,375.567169 374.058563,394.480042 339.717804,413.554321 
	C336.604736,415.283417 334.830902,414.876068 332.472748,412.522675 
	C322.213806,402.284424 311.670685,392.328522 301.513092,381.992615 
	C298.479004,378.905304 296.524933,378.457520 292.944794,381.299438 
	C280.815552,390.927643 268.372894,400.160950 255.765854,409.764374 
z"/>
<path fill="#020202" opacity="1.000000" stroke="none" 
	d="
M403.693176,191.220749 
	C397.750549,190.453720 395.249786,187.694824 396.070709,181.801727 
	C396.589447,178.077911 396.167542,174.223038 396.167542,170.111069 
	C393.962799,170.000854 392.353027,169.850647 390.743195,169.850113 
	C351.926636,169.837250 313.109863,169.786346 274.294128,169.966721 
	C271.805359,169.978302 268.995819,171.345734 266.898163,172.861221 
	C258.190674,179.152115 254.397888,187.116318 254.617325,198.595566 
	C255.020096,219.665024 253.277252,240.775497 252.409332,262.355164 
	C251.103745,261.868408 250.046356,261.599945 249.108185,261.105377 
	C237.063614,254.755844 224.978897,248.477097 213.073471,241.875458 
	C211.510712,241.008911 209.982635,238.454819 209.967072,236.669006 
	C209.762466,213.181030 209.769501,189.690216 209.946152,166.201767 
	C209.961273,164.190155 211.047806,161.648590 212.504303,160.269806 
	C225.673859,147.803101 239.002106,135.502655 252.398590,123.279236 
	C253.705795,122.086479 255.782227,121.093796 257.503510,121.090782 
	C319.809692,120.981697 382.116119,121.000862 444.422485,121.010399 
	C444.915588,121.010475 445.408691,121.121399 446.204987,121.216934 
	C446.204987,148.785141 446.204987,176.356140 446.204987,204.732239 
	C431.997040,200.220123 418.032562,195.785324 403.693176,191.220749 
z"/>
</svg>